HIERARCHY
ROOT hip
{
  OFFSET 0 0 0
  CHANNELS 6 Xposition Yposition Zposition Zrotation Yrotation Xrotation
  JOINT abdomen
  {
    OFFSET 0 20.6881 -0.73152
    CHANNELS 3 Zrotation Xrotation Yrotation
    JOINT chest
    {
      OFFSET 0 11.7043 -0.48768
      CHANNELS 3 Zrotation Xrotation Yrotation
      JOINT neck
      {
        OFFSET 0 22.1894 -2.19456
        CHANNELS 3 Zrotation Xrotation Yrotation
        JOINT head
        {
          OFFSET -0.24384 7.07133 1.2192
          CHANNELS 3 Zrotation Xrotation Yrotation
          JOINT leftEye
          {
            OFFSET 4.14528 8.04674 8.04672
            CHANNELS 3 Zrotation Xrotation Yrotation
            End Site
            {
              OFFSET 1 0 0
            }
          }
          JOINT rightEye
          {
            OFFSET -3.6576 8.04674 8.04672
            CHANNELS 3 Zrotation Xrotation Yrotation
            End Site
            {
              OFFSET 1 0 0
            }
          }
        }
      }
      JOINT rCollar
      {
        OFFSET -2.68224 19.2634 -4.8768
        CHANNELS 3 Zrotation Xrotation Yrotation
        JOINT rShldr
        {
          OFFSET -8.77824 -1.95073 1.46304
          CHANNELS 3 Zrotation Xrotation Yrotation
          JOINT rForeArm
          {
            OFFSET -28.1742 -1.7115 0.48768
            CHANNELS 3 Zrotation Xrotation Yrotation
            JOINT rHand
            {
              OFFSET -22.5879 0.773209 7.07136
              CHANNELS 3 Zrotation Xrotation Yrotation
              JOINT rThumb1
              {
                OFFSET -1.2192 -0.487915 3.41376
                CHANNELS 3 Zrotation Xrotation Yrotation
                JOINT rThumb2
                {
                  OFFSET -3.37035 -0.52449 3.41376
                  CHANNELS 3 Zrotation Xrotation Yrotation
                  End Site
                  {
                    OFFSET -1.78271 -1.18214 1.43049
                  }
                }
              }
              JOINT rIndex1
              {
                OFFSET -7.75947 0.938293 5.60832
                CHANNELS 3 Zrotation Xrotation Yrotation
                JOINT rIndex2
                {
                  OFFSET -2.54057 -0.884171 1.56538
                  CHANNELS 3 Zrotation Xrotation Yrotation
                  End Site
                  {
                    OFFSET -1.62519 -0.234802 1.16502
                  }
                }
              }
              JOINT rMid1
              {
                OFFSET -8.24714 1.18213 3.41376
                CHANNELS 3 Zrotation Xrotation Yrotation
                JOINT rMid2
                {
                  OFFSET -3.10165 -0.590103 1.0647
                  CHANNELS 3 Zrotation Xrotation Yrotation
                  End Site
                  {
                    OFFSET -2.48547 -0.328903 0.83742
                  }
                }
              }
              JOINT rRing1
              {
                OFFSET -8.82822 0.546677 1.51678
                CHANNELS 3 Zrotation Xrotation Yrotation
                JOINT rRing2
                {
                  OFFSET -2.60934 -0.819778 -0.0198488
                  CHANNELS 3 Zrotation Xrotation Yrotation
                  End Site
                  {
                    OFFSET -2.33842 -0.294052 0.168128
                  }
                }
              }
              JOINT rPinky1
              {
                OFFSET -8.27202 -0.0477905 -0.4584
                CHANNELS 3 Zrotation Xrotation Yrotation
                JOINT rPinky2
                {
                  OFFSET -1.82734 -0.647385 -0.700984
                  CHANNELS 3 Zrotation Xrotation Yrotation
                  End Site
                  {
                    OFFSET -1.69225 -0.51767 -0.607171
                  }
                }
              }
            }
          }
        }
      }
      JOINT lCollar
      {
        OFFSET 2.68224 19.2634 -4.8768
        CHANNELS 3 Zrotation Xrotation Yrotation
        JOINT lShldr
        {
          OFFSET 8.77824 -1.95073 1.46304
          CHANNELS 3 Zrotation Xrotation Yrotation
          JOINT lForeArm
          {
            OFFSET 28.1742 -1.7115 0.48768
            CHANNELS 3 Zrotation Xrotation Yrotation
            JOINT lHand
            {
              OFFSET 22.5879 0.773209 7.07136
              CHANNELS 3 Zrotation Xrotation Yrotation
              JOINT lThumb1
              {
                OFFSET 1.2192 -0.487915 3.41376
                CHANNELS 3 Zrotation Xrotation Yrotation
                JOINT lThumb2
                {
                  OFFSET 3.37035 -0.52449 3.41376
                  CHANNELS 3 Zrotation Xrotation Yrotation
                  End Site
                  {
                    OFFSET 1.78271 -1.18214 1.43049
                  }
                }
              }
              JOINT lIndex1
              {
                OFFSET 7.75947 0.938293 5.60832
                CHANNELS 3 Zrotation Xrotation Yrotation
                JOINT lIndex2
                {
                  OFFSET 2.54057 -0.884171 1.56538
                  CHANNELS 3 Zrotation Xrotation Yrotation
                  End Site
                  {
                    OFFSET 1.62519 -0.234802 1.16502
                  }
                }
              }
              JOINT lMid1
              {
                OFFSET 8.24714 1.18213 3.41376
                CHANNELS 3 Zrotation Xrotation Yrotation
                JOINT lMid2
                {
                  OFFSET 3.10165 -0.590103 1.0647
                  CHANNELS 3 Zrotation Xrotation Yrotation
                  End Site
                  {
                    OFFSET 2.48547 -0.328903 0.83742
                  }
                }
              }
              JOINT lRing1
              {
                OFFSET 8.82822 0.546677 1.51678
                CHANNELS 3 Zrotation Xrotation Yrotation
                JOINT lRing2
                {
                  OFFSET 2.60934 -0.819778 -0.0198488
                  CHANNELS 3 Zrotation Xrotation Yrotation
                  End Site
                  {
                    OFFSET 2.33842 -0.294052 0.168128
                  }
                }
              }
              JOINT lPinky1
              {
                OFFSET 8.27202 -0.0477905 -0.4584
                CHANNELS 3 Zrotation Xrotation Yrotation
                JOINT lPinky2
                {
                  OFFSET 1.82734 -0.647385 -0.700984
                  CHANNELS 3 Zrotation Xrotation Yrotation
                  End Site
                  {
                    OFFSET 1.69225 -0.51767 -0.607171
                  }
                }
              }
            }
          }
        }
      }
    }
  }
  JOINT rButtock
  {
    OFFSET -8.77824 4.35084 1.2192
    CHANNELS 3 Zrotation Xrotation Yrotation
    JOINT rThigh
    {
      OFFSET 0 -1.70687 -2.19456
      CHANNELS 3 Zrotation Xrotation Yrotation
      JOINT rShin
      {
        OFFSET 0 -36.8199 0.73152
        CHANNELS 3 Zrotation Xrotation Yrotation
        JOINT rFoot
        {
          OFFSET 0.73152 -45.1104 -5.12064
          CHANNELS 3 Zrotation Xrotation Yrotation
          End Site
          {
            OFFSET -1.1221 -3.69964 12.103
          }
        }
      }
    }
  }
  JOINT lButtock
  {
    OFFSET 8.77824 4.35084 1.2192
    CHANNELS 3 Zrotation Xrotation Yrotation
    JOINT lThigh
    {
      OFFSET 0 -1.70687 -2.19456
      CHANNELS 3 Zrotation Xrotation Yrotation
      JOINT lShin
      {
        OFFSET 0 -36.8199 0.73152
        CHANNELS 3 Zrotation Xrotation Yrotation
        JOINT lFoot
        {
          OFFSET -0.73152 -45.1104 -5.12064
          CHANNELS 3 Zrotation Xrotation Yrotation
          End Site
          {
            OFFSET 1.1221 -3.69964 12.103
          }
        }
      }
    }
  }
}
MOTION
Frames:	6
Frame Time:	0.00833333
13.5442 30.0539 -146.369 -144.058 -38.8197 159.296 7.21611 58.818 -10.7186 6.02113 -7.90481 -3.67827 -6.65009 5.3668 -7.24833 33.9066 -25.6025 -8.52508 -0.0 0.0 0.0 -0.0 0.0 0.0 -3.64059e-13 2.26111e-13 1.94171e-13 24.5674 -11.4845 31.5041 -28.0409 -30.8604 68.6222 -0.207984 -12.8817 -1.84186 -1.08298e-09 -7.04767e-09 -4.99675e-09 -1.82043e-09 -1.2011e-08 -8.6467e-09 -1.08298e-09 -7.04767e-09 -4.99676e-09 7.73091 5.47488 0.417314 -1.08298e-09 -7.04767e-09 -4.99676e-09 2.90554 0.965183 0.102902 -1.08298e-09 -7.04767e-09 -4.99675e-09 10.2786 0.731801 0.0259123 -1.08299e-09 -7.04767e-09 -4.99674e-09 2.22167 -0.733487 -0.20892 -3.64178e-13 2.26124e-13 1.9389e-13 -48.9595 14.8265 -20.1966 14.6475 -7.49613 -26.8405 1.7749 34.9462 -5.63586 -1.69558e-09 -3.56661e-11 1.84305e-09 -2.87396e-09 -3.95805e-11 3.22748e-09 -1.69559e-09 -3.56693e-11 1.84307e-09 -7.73091 5.47488 -0.417314 -1.69558e-09 -3.56669e-11 1.84305e-09 -2.90554 0.965183 -0.102902 -1.69559e-09 -3.5667e-11 1.84305e-09 -10.2786 0.731801 -0.0259123 -1.69558e-09 -3.56651e-11 1.84305e-09 -2.22167 -0.733487 0.20892 -2.03217e-16 0.0 -3.88251e-19 -135.368 -53.3847 -157.655 -161.595 85.4937 159.583 -2.43164 20.2131 5.15989 2.03217e-16 0.0 3.88251e-19 69.1308 -41.8499 90.6561 177.851 38.2589 179.659 -9.39077 -1.40202 -35.2871
13.5939 30.4335 -147.305 -145.008 -40.593 160.311 7.05726 58.8101 -11.2204 6.08387 -7.94995 -3.75377 -6.79758 5.4976 -7.40143 34.4794 -26.0138 -8.62198 -0.0 0.0 0.0 -0.0 0.0 0.0 -2.54364e-13 1.7175e-13 1.59177e-13 25.6104 -11.0541 30.8383 -28.0583 -30.9716 68.802 -0.208428 -12.8963 -1.84402 -1.26052e-09 -6.72314e-09 -3.86166e-09 -2.13794e-09 -1.14883e-08 -6.68607e-09 -1.26051e-09 -6.72314e-09 -3.86166e-09 7.73091 5.47488 0.417314 -1.26051e-09 -6.72314e-09 -3.86166e-09 2.90554 0.965183 0.102902 -1.26051e-09 -6.72315e-09 -3.86166e-09 10.2786 0.731801 0.0259123 -1.26052e-09 -6.72314e-09 -3.86164e-09 2.22167 -0.733487 -0.20892 -2.54492e-13 1.7175e-13 1.58879e-13 -48.5568 13.6664 -21.0542 13.7022 -6.71665 -24.9568 1.84923 35.5498 -5.764 -1.0576e-09 2.41916e-10 1.82731e-09 -1.77512e-09 4.4045e-10 3.18259e-09 -1.0576e-09 2.41913e-10 1.82733e-09 -7.73091 5.47488 -0.417314 -1.0576e-09 2.41914e-10 1.82732e-09 -2.90554 0.965183 -0.102902 -1.0576e-09 2.41913e-10 1.82732e-09 -10.2786 0.731801 -0.0259123 -1.05759e-09 2.41915e-10 1.82731e-09 -2.22167 -0.733487 0.20892 -2.03217e-16 0.0 -3.88251e-19 -136.021 -53.8315 -157.985 -163.206 85.0219 161.136 -2.12295 20.033 3.58203 2.03217e-16 0.0 3.88251e-19 68.4727 -42.851 89.8367 177.843 38.2043 179.726 -9.14273 -1.41125 -34.8999
13.6637 30.8287 -148.227 -145.941 -42.3607 161.366 7.12024 58.7045 -11.8744 6.13376 -8.02576 -3.83215 -6.96471 5.59253 -7.5687 35.0116 -26.3518 -8.75634 -0.0 0.0 0.0 -0.0 0.0 0.0 1.04493e-13 -1.36833e-13 1.5327e-14 26.5841 -10.6588 30.252 -28.0658 -31.0238 68.8907 -0.212315 -13.0152 -1.86161 -4.04299e-10 -2.14747e-09 2.98212e-10 -7.01673e-10 -3.73661e-09 5.10586e-10 -4.04292e-10 -2.14747e-09 2.98208e-10 7.73091 5.47488 0.417314 -4.04299e-10 -2.14747e-09 2.9821e-10 2.90554 0.965183 0.102902 -4.04293e-10 -2.14747e-09 2.98217e-10 10.2786 0.731801 0.0259123 -4.04308e-10 -2.14747e-09 2.98231e-10 2.22167 -0.733487 -0.20892 1.04406e-13 -1.36844e-13 1.50634e-14 -48.1827 12.6013 -21.9327 12.7331 -5.9831 -23.0357 1.90828 36.0105 -5.86367 8.13193e-10 2.62704e-10 2.25077e-10 1.40643e-09 4.67572e-10 3.65794e-10 8.13186e-10 2.62701e-10 2.25092e-10 -7.73091 5.47488 -0.417314 8.13193e-10 2.62701e-10 2.25079e-10 -2.90554 0.965183 -0.102902 8.13186e-10 2.62701e-10 2.25079e-10 -10.2786 0.731801 -0.0259123 8.13199e-10 2.62703e-10 2.25073e-10 -2.22167 -0.733487 0.20892 -2.03217e-16 0.0 -3.88251e-19 -136.669 -54.2539 -158.235 -164.231 84.6607 162.109 -1.80952 19.7602 1.91211 2.03217e-16 0.0 3.88251e-19 67.852 -44.0424 89.1685 177.83 38.1616 179.827 -8.89964 -1.56421 -34.1529
13.7554 31.2258 -149.16 -146.871 -44.1021 162.489 7.34601 58.5394 -12.6292 6.17234 -8.13153 -3.91097 -7.15191 5.66159 -7.7517 35.5031 -26.6304 -8.9267 -0.0 0.0 0.0 -0.0 0.0 0.0 6.31156e-13 -6.17613e-13 -2.04025e-13 27.498 -10.3091 29.7069 -28.0661 -31.0273 68.8985 -0.219045 -13.2155 -1.89129 1.14304e-09 5.25079e-09 6.53113e-09 1.90665e-09 8.8121e-09 1.12956e-08 1.14305e-09 5.25079e-09 6.53112e-09 7.73091 5.47488 0.417314 1.14304e-09 5.25079e-09 6.53113e-09 2.90554 0.965183 0.102902 1.14305e-09 5.25078e-09 6.53113e-09 10.2786 0.731801 0.0259123 1.14304e-09 5.25079e-09 6.53115e-09 2.22167 -0.733487 -0.20892 6.31143e-13 -6.17636e-13 -2.0422e-13 -47.8555 11.5775 -22.8615 11.7204 -5.27078 -21.0495 1.96127 36.4109 -5.95165 3.53756e-09 1.14609e-10 -2.43724e-09 6.03087e-09 1.97291e-10 -4.30405e-09 3.53755e-09 1.14607e-10 -2.43723e-09 -7.73091 5.47488 -0.417314 3.53756e-09 1.14607e-10 -2.43724e-09 -2.90554 0.965183 -0.102902 3.53755e-09 1.14606e-10 -2.43724e-09 -10.2786 0.731801 -0.0259123 3.53756e-09 1.14609e-10 -2.43725e-09 -2.22167 -0.733487 0.20892 -2.03217e-16 0.0 -3.88251e-19 -137.317 -54.7283 -158.352 -164.984 84.3565 162.816 -1.49649 19.4009 0.129891 2.03217e-16 0.0 3.88251e-19 67.2194 -45.443 88.6257 177.812 38.1401 179.964 -8.61066 -1.84382 -32.9935
13.8649 31.6275 -150.101 -147.836 -45.7937 163.696 7.66891 58.3368 -13.3776 6.19764 -8.26313 -3.97657 -7.33901 5.73058 -7.93478 35.9063 -26.9052 -9.10131 -0.0 0.0 0.0 -0.0 0.0 0.0 1.12929e-12 -1.09332e-12 -3.97635e-13 28.3384 -9.98748 29.2261 -28.0599 -30.986 68.8306 -0.225149 -13.3921 -1.91754 2.66805e-09 1.23815e-08 1.24336e-08 4.47969e-09 2.09105e-08 2.15095e-08 2.66806e-09 1.23815e-08 1.24336e-08 7.73091 5.47488 0.417314 2.66805e-09 1.23815e-08 1.24336e-08 2.90554 0.965183 0.102902 2.66806e-09 1.23815e-08 1.24336e-08 10.2786 0.731801 0.0259123 2.66805e-09 1.23815e-08 1.24336e-08 2.22167 -0.733487 -0.20892 1.12935e-12 -1.09336e-12 -3.97764e-13 -47.6602 10.5514 -23.7457 10.7164 -4.60367 -19.1265 2.02538 36.9002 -6.05908 6.0816e-09 -7.47845e-11 -5.1145e-09 1.03434e-08 -1.43206e-10 -8.99472e-09 6.0816e-09 -7.47848e-11 -5.11449e-09 -7.73091 5.47488 -0.417314 6.0816e-09 -7.47856e-11 -5.1145e-09 -2.90554 0.965183 -0.102902 6.0816e-09 -7.47856e-11 -5.1145e-09 -10.2786 0.731801 -0.0259123 6.08161e-09 -7.4783e-11 -5.11451e-09 -2.22167 -0.733487 0.20892 -2.03217e-16 0.0 -3.88251e-19 -138.069 -55.1374 -158.507 -165.701 84.0339 163.492 -1.21588 19.0069 -1.61666 2.03217e-16 0.0 3.88251e-19 66.6067 -46.8497 88.0704 177.793 38.1552 -179.896 -8.35379 -2.21857 -31.7574
13.9922 32.03 -151.057 -148.838 -47.3684 164.971 8.02773 58.121 -14.0165 6.20787 -8.41645 -4.01525 -7.50559 5.82528 -8.10232 36.1737 -27.2321 -9.24858 -0.0 0.0 0.0 -0.0 0.0 0.0 1.40257e-12 -1.3867e-12 -4.64262e-13 29.0923 -9.6766 28.8325 -28.0475 -30.9031 68.6921 -0.226801 -13.4401 -1.92467 3.45726e-09 1.61546e-08 1.5602e-08 5.81009e-09 2.73112e-08 2.69927e-08 3.45727e-09 1.61546e-08 1.5602e-08 7.73091 5.47488 0.417314 3.45726e-09 1.61546e-08 1.5602e-08 2.90554 0.965183 0.102902 3.45727e-09 1.61546e-08 1.5602e-08 10.2786 0.731801 0.0259123 3.45726e-09 1.61546e-08 1.5602e-08 2.22167 -0.733487 -0.20892 1.40267e-12 -1.38674e-12 -4.64361e-13 -47.6783 9.4791 -24.4927 9.78256 -4.01033 -17.3943 2.12075 37.6271 -6.21945 7.41145e-09 -1.77892e-10 -6.76156e-09 1.25891e-08 -3.26729e-10 -1.1874e-08 7.41144e-09 -1.7789e-10 -6.76155e-09 -7.73091 5.47488 -0.417314 7.41145e-09 -1.77892e-10 -6.76156e-09 -2.90554 0.965183 -0.102902 7.41144e-09 -1.77891e-10 -6.76156e-09 -10.2786 0.731801 -0.0259123 7.41145e-09 -1.77889e-10 -6.76157e-09 -2.22167 -0.733487 0.20892 -2.03217e-16 0.0 -3.88251e-19 -139.034 -55.3631 -158.875 -166.532 83.6165 164.285 -0.988747 18.6358 -3.18327 2.03217e-16 0.0 3.88251e-19 66.0377 -48.0535 87.3522 177.777 38.2223 -179.784 -8.21596 -2.652 -30.7799
